<svg xmlns="http://www.w3.org/2000/svg" width="470" height="470" viewBox="0 0 470 470">
<g>
<path d="M 264.50 200.80 C250.20,209.34 237.60,216.90 236.50,217.60 C234.71,218.73 230.36,216.41 195.00,195.45 C155.56,172.07 124.55,153.53 89.21,132.20 C78.92,125.99 61.88,115.94 51.35,109.87 L 32.21 98.83 L 31.62 93.66 C30.56,84.36 27.83,33.59 28.17,29.56 L 28.50 25.62 L 38.12 37.56 C53.44,56.56 52.54,55.82 78.50,70.58 C119.99,94.17 185.76,132.39 225.81,156.19 L 234.11 161.13 L 238.31 158.68 C240.61,157.34 267.48,141.65 298.00,123.83 C328.52,106.00 367.15,83.58 383.84,74.01 L 414.18 56.62 L 426.70 41.31 C433.59,32.89 439.62,26.00 440.09,26.00 C440.57,26.00 440.74,27.91 440.48,30.25 C440.21,32.59 439.32,46.42 438.49,61.00 C437.67,75.57 436.73,90.07 436.40,93.21 L 435.81 98.91 L 420.66 107.66 C412.32,112.47 394.70,122.88 381.50,130.80 C356.67,145.70 309.66,173.82 264.50,200.80 ZM 257.50 129.21 C247.05,135.36 237.57,140.97 236.44,141.69 C234.56,142.87 229.75,140.28 184.32,113.74 C156.79,97.66 133.23,83.79 131.96,82.93 C129.68,81.38 129.82,81.26 140.57,75.76 C168.16,61.66 198.11,55.00 234.00,55.00 C260.63,55.00 282.19,58.25 304.23,65.58 C315.48,69.32 337.29,79.78 337.42,81.50 C337.46,82.05 323.77,90.50 307.00,100.27 C290.23,110.04 267.95,123.06 257.50,129.21 ZM 346.73 336.09 C336.12,338.73 314.73,339.47 303.50,337.60 C294.55,336.10 284.29,333.27 283.56,332.10 C283.30,331.68 286.56,326.27 290.79,320.08 L 298.50 308.83 L 302.00 309.43 C324.96,313.39 341.57,311.26 360.00,302.00 C381.07,291.41 397.51,271.69 404.63,248.46 C407.12,240.35 407.38,238.02 407.40,224.00 C407.43,206.05 406.32,200.74 399.52,186.32 C394.14,174.90 391.07,170.42 381.95,160.65 C377.98,156.41 374.91,152.79 375.12,152.63 C378.82,149.68 398.46,138.96 399.45,139.34 C401.36,140.08 409.67,150.24 415.37,158.80 C423.99,171.77 430.94,190.59 433.10,206.84 C434.63,218.30 433.66,240.07 431.14,251.05 C421.37,293.56 389.79,325.37 346.73,336.09 ZM 160.50 338.06 C152.73,338.96 142.08,339.10 137.00,338.37 C119.45,335.86 107.76,332.43 95.35,326.16 C64.27,310.44 44.14,283.36 36.28,246.69 C33.82,235.21 33.88,210.63 36.38,199.00 C38.78,187.88 42.85,176.85 48.39,166.44 C54.49,154.96 66.69,139.00 69.35,139.00 C70.29,139.00 82.77,145.97 90.35,150.73 L 94.20 153.15 L 86.74 160.83 C74.00,173.92 65.48,189.23 61.88,205.50 C61.10,209.01 60.59,217.10 60.64,225.00 C60.74,240.62 63.05,250.20 70.11,264.37 C83.10,290.43 109.80,308.18 141.00,311.49 C146.69,312.09 156.23,311.31 166.69,309.39 C169.82,308.81 170.02,309.01 177.60,320.49 C183.72,329.76 185.03,332.37 183.91,333.06 C181.76,334.40 169.45,337.03 160.50,338.06 ZM 240.55 364.00 C237.40,368.67 234.68,372.64 234.51,372.82 C233.97,373.37 229.67,367.18 197.45,319.46 L 185.27 301.42 L 209.82 274.59 L 234.37 247.76 L 238.93 252.63 C246.55,260.76 279.16,296.93 281.08,299.38 C282.87,301.65 282.81,301.78 271.15,319.08 C264.71,328.66 256.47,340.77 252.85,346.00 C249.24,351.23 243.70,359.33 240.55,364.00 ZM 162.40 280.02 C133.31,287.46 101.75,270.99 92.55,243.57 C83.42,216.34 95.76,184.74 120.10,172.97 L 124.71 170.74 L 132.10 175.05 C136.17,177.42 142.65,181.40 146.50,183.90 L 153.50 188.44 L 146.83 189.13 C137.28,190.12 128.99,194.14 123.03,200.66 C103.82,221.68 116.77,256.00 144.59,257.79 C165.14,259.11 180.79,245.73 181.80,225.98 C182.21,218.15 180.32,209.13 177.51,205.41 C173.71,200.39 175.85,201.20 193.25,211.31 L 207.00 219.29 L 206.98 223.90 C206.93,238.43 200.31,253.90 189.59,264.53 C181.39,272.66 173.41,277.21 162.40,280.02 ZM 335.86 279.97 C322.48,283.68 306.63,281.89 293.37,275.18 C275.10,265.93 263.69,248.40 262.28,227.40 L 261.74 219.30 L 274.12 212.02 C280.93,208.02 287.95,203.87 289.73,202.80 L 292.96 200.86 L 289.75 207.68 C287.21,213.07 286.45,216.11 286.16,222.18 C285.71,231.54 287.47,237.48 292.77,244.46 C300.02,254.03 309.89,258.48 322.49,257.84 C350.94,256.40 364.42,221.94 344.90,200.58 C339.09,194.23 333.35,191.17 323.07,188.98 L 315.64 187.39 L 329.43 179.15 C342.35,171.43 343.42,170.98 346.36,171.98 C351.72,173.80 360.28,180.40 365.31,186.58 C381.94,207.07 383.35,234.86 368.84,256.54 C360.87,268.46 350.30,275.97 335.86,279.97 Z" fill="rgb(13,38,64)"/>
<path d="M 210.21 429.24 C214.71,434.44 214.97,434.99 212.85,434.85 C199.57,434.00 173.66,427.72 157.00,421.30 C138.37,414.12 116.26,400.64 99.95,386.51 C85.17,373.71 67.85,351.91 58.24,334.00 C52.91,324.08 48.40,313.57 49.73,314.16 C50.15,314.35 57.70,319.24 66.50,325.04 C75.30,330.83 88.57,339.35 96.00,343.98 C103.43,348.60 113.78,355.15 119.00,358.52 C124.22,361.90 130.52,365.87 133.00,367.36 C144.74,374.41 163.28,386.86 172.39,393.81 C182.98,401.89 201.76,419.49 210.21,429.24 ZM 270.53 432.52 C253.42,435.55 252.61,435.59 253.89,433.21 C255.99,429.28 285.23,401.98 296.02,393.87 C307.40,385.31 329.30,370.70 350.50,357.52 C369.17,345.91 408.24,320.82 413.29,317.19 C415.93,315.30 418.34,314.01 418.65,314.32 C419.44,315.11 408.01,337.59 402.40,346.27 C391.78,362.70 377.12,378.90 361.49,391.48 C334.56,413.15 305.29,426.36 270.53,432.52 ZM 250.49 405.16 C246.63,409.20 241.23,415.07 238.49,418.20 L 233.50 423.91 L 228.00 416.88 C213.34,398.17 186.45,376.72 155.54,359.11 L 146.58 354.00 L 152.22 354.00 C162.17,354.00 184.09,349.98 193.14,346.50 C194.40,346.02 197.94,350.47 208.77,366.19 C216.47,377.36 225.17,390.21 228.10,394.75 C232.29,401.25 233.67,402.74 234.61,401.75 C235.26,401.06 240.77,393.08 246.85,384.00 C265.52,356.14 272.55,346.49 274.06,346.67 C274.85,346.76 279.81,347.96 285.07,349.34 C296.14,352.23 307.71,353.99 315.82,354.01 L 321.50 354.03 L 314.23 357.99 C290.81,370.76 265.35,389.60 250.49,405.16 ZM 263.01 218.55 L 276.50 210.44 C284.20,205.81 291.17,201.71 292.00,201.33 C292.83,200.95 295.08,199.65 297.00,198.43 C298.92,197.22 310.11,190.53 321.86,183.57 C326.36,180.91 329.92,178.81 332.77,177.16 C331.75,177.77 330.64,178.43 329.43,179.15 L 315.64 187.39 L 323.07 188.98 C333.35,191.17 339.09,194.23 344.90,200.58 C364.42,221.94 350.94,256.40 322.49,257.84 C309.89,258.48 300.02,254.03 292.77,244.46 C287.47,237.48 285.71,231.54 286.16,222.18 C286.45,216.11 287.21,213.07 289.75,207.68 L 292.96 200.86 L 289.73 202.80 C287.95,203.87 280.93,208.02 274.12,212.02 ZM 205.66 218.51 L 193.25 211.31 C175.85,201.20 173.71,200.39 177.51,205.41 C180.32,209.13 182.21,218.15 181.80,225.98 C180.79,245.73 165.14,259.11 144.59,257.79 C116.77,256.00 103.82,221.68 123.03,200.66 C128.99,194.14 137.28,190.12 146.83,189.13 L 153.50 188.44 L 146.50 183.90 C144.61,182.67 142.09,181.09 139.53,179.51 L 148.14 184.66 C160.99,192.33 179.49,203.26 189.25,208.95 ZM 314.97 236.18 C317.60,237.35 322.92,237.06 326.51,235.56 C336.16,231.53 336.54,215.43 327.09,210.55 C318.07,205.88 305.99,212.63 306.01,222.33 C306.02,228.68 309.22,233.63 314.97,236.18 ZM 141.30 235.04 C150.57,240.70 162.59,233.59 162.16,222.71 C161.54,206.96 139.88,203.72 134.95,218.64 C132.87,224.94 135.39,231.44 141.30,235.04 ZM 271.68 255.96 C267.77,250.10 265.00,243.55 263.60,236.67 C265.14,243.70 267.88,250.20 271.68,255.96 ZM 129.99 173.82 L 124.71 170.74 L 124.78 170.71 Z" fill="rgb(44,133,188)"/>
<path d="M 0.00 235.00 L 0.00 0.00 L 235.00 0.00 L 470.00 0.00 L 470.00 235.00 L 470.00 470.00 L 235.00 470.00 L 0.00 470.00 L 0.00 235.00 ZM 210.21 429.24 C201.76,419.49 182.98,401.89 172.39,393.81 C163.28,386.86 144.74,374.41 133.00,367.36 C130.52,365.87 124.22,361.90 119.00,358.52 C113.78,355.15 103.43,348.60 96.00,343.98 C88.57,339.35 75.30,330.83 66.50,325.04 C57.70,319.24 50.15,314.35 49.73,314.16 C48.40,313.57 52.91,324.08 58.24,334.00 C67.85,351.91 85.17,373.71 99.95,386.51 C116.26,400.64 138.37,414.12 157.00,421.30 C173.66,427.72 199.57,434.00 212.85,434.85 C214.97,434.99 214.71,434.44 210.21,429.24 ZM 270.53 432.52 C305.29,426.36 334.56,413.15 361.49,391.48 C377.12,378.90 391.78,362.70 402.40,346.27 C408.01,337.59 419.44,315.11 418.65,314.32 C418.34,314.01 415.93,315.30 413.29,317.19 C408.24,320.82 369.17,345.91 350.50,357.52 C329.30,370.70 307.40,385.31 296.02,393.87 C285.23,401.98 255.99,429.28 253.89,433.21 C252.61,435.59 253.42,435.55 270.53,432.52 ZM 250.49 405.16 C265.35,389.60 290.81,370.76 314.23,357.99 L 321.50 354.03 L 315.82 354.01 C307.71,353.99 296.14,352.23 285.07,349.34 C279.81,347.96 274.85,346.76 274.06,346.67 C272.55,346.49 265.52,356.14 246.85,384.00 C240.77,393.08 235.26,401.06 234.61,401.75 C233.67,402.74 232.29,401.25 228.10,394.75 C225.17,390.21 216.47,377.36 208.77,366.19 C197.94,350.47 194.40,346.02 193.14,346.50 C184.09,349.98 162.17,354.00 152.22,354.00 L 146.58 354.00 L 155.54 359.11 C186.45,376.72 213.34,398.17 228.00,416.88 L 233.50 423.91 L 238.49 418.20 C241.23,415.07 246.63,409.20 250.49,405.16 ZM 240.55 364.00 C243.70,359.33 249.24,351.23 252.85,346.00 C256.47,340.77 264.71,328.66 271.15,319.08 C282.81,301.78 282.87,301.65 281.08,299.38 C279.16,296.93 246.55,260.76 238.93,252.63 L 234.37 247.76 L 209.82 274.59 L 185.27 301.42 L 197.45 319.46 C229.67,367.18 233.97,373.37 234.51,372.82 C234.68,372.64 237.40,368.67 240.55,364.00 ZM 160.50 338.06 C169.45,337.03 181.76,334.40 183.91,333.06 C185.03,332.37 183.72,329.76 177.60,320.49 C170.02,309.01 169.82,308.81 166.69,309.39 C156.23,311.31 146.69,312.09 141.00,311.49 C109.80,308.18 83.10,290.43 70.11,264.37 C63.05,250.20 60.74,240.62 60.64,225.00 C60.59,217.10 61.10,209.01 61.88,205.50 C65.48,189.23 74.00,173.92 86.74,160.83 L 94.20 153.15 L 90.35 150.73 C82.77,145.97 70.29,139.00 69.35,139.00 C66.69,139.00 54.49,154.96 48.39,166.44 C42.85,176.85 38.78,187.88 36.38,199.00 C33.88,210.63 33.82,235.21 36.28,246.69 C44.14,283.36 64.27,310.44 95.35,326.16 C107.76,332.43 119.45,335.86 137.00,338.37 C142.08,339.10 152.73,338.96 160.50,338.06 ZM 346.73 336.09 C389.79,325.37 421.37,293.56 431.14,251.05 C433.66,240.07 434.63,218.30 433.10,206.84 C430.94,190.59 423.99,171.77 415.37,158.80 C409.67,150.24 401.36,140.08 399.45,139.34 C398.46,138.96 378.82,149.68 375.12,152.63 C374.91,152.79 377.98,156.41 381.95,160.65 C391.07,170.42 394.14,174.90 399.52,186.32 C406.32,200.74 407.43,206.05 407.40,224.00 C407.38,238.02 407.12,240.35 404.63,248.46 C397.51,271.69 381.07,291.41 360.00,302.00 C341.57,311.26 324.96,313.39 302.00,309.43 L 298.50 308.83 L 290.79 320.08 C286.56,326.27 283.30,331.68 283.56,332.10 C284.29,333.27 294.55,336.10 303.50,337.60 C314.73,339.47 336.12,338.73 346.73,336.09 ZM 162.40 280.02 C173.41,277.21 181.39,272.66 189.59,264.53 C200.31,253.90 206.93,238.43 206.98,223.90 L 207.00 219.30 L 189.25 208.95 C179.49,203.26 160.99,192.33 148.14,184.66 L 124.78 170.71 L 120.14 172.95 C95.76,184.74 83.42,216.33 92.55,243.57 C101.75,270.99 133.31,287.46 162.40,280.02 ZM 335.86 279.97 C350.30,275.97 360.87,268.46 368.84,256.54 C383.35,234.86 381.94,207.07 365.31,186.58 C360.29,180.40 351.72,173.80 346.36,171.98 C343.39,170.97 342.11,171.58 321.86,183.57 C310.11,190.53 298.92,197.22 297.00,198.43 C295.08,199.65 292.83,200.95 292.00,201.33 C291.17,201.71 284.20,205.81 276.50,210.44 L 262.50 218.86 L 262.55 226.68 C262.68,246.82 274.70,265.73 293.37,275.18 C306.63,281.89 322.48,283.68 335.86,279.97 ZM 264.50 200.80 C309.66,173.82 356.67,145.70 381.50,130.80 C394.70,122.88 412.32,112.47 420.66,107.66 L 435.81 98.91 L 436.40 93.21 C436.73,90.07 437.67,75.57 438.49,61.00 C439.32,46.42 440.21,32.59 440.48,30.25 C440.74,27.91 440.57,26.00 440.09,26.00 C439.62,26.00 433.59,32.89 426.70,41.31 L 414.18 56.62 L 383.84 74.01 C367.15,83.58 328.52,106.00 298.00,123.83 C267.48,141.65 240.61,157.34 238.31,158.68 L 234.11 161.13 L 225.81 156.19 C185.76,132.39 119.99,94.17 78.50,70.58 C52.54,55.82 53.44,56.56 38.12,37.56 L 28.50 25.62 L 28.17 29.56 C27.83,33.59 30.56,84.36 31.62,93.66 L 32.21 98.83 L 51.35 109.87 C61.88,115.94 78.92,125.99 89.21,132.20 C124.55,153.53 155.56,172.07 195.00,195.45 C230.36,216.41 234.71,218.73 236.50,217.60 C237.60,216.90 250.20,209.34 264.50,200.80 ZM 257.50 129.21 C267.95,123.06 290.23,110.04 307.00,100.27 C323.77,90.50 337.46,82.05 337.42,81.50 C337.29,79.78 315.48,69.32 304.23,65.58 C282.19,58.25 260.63,55.00 234.00,55.00 C198.11,55.00 168.16,61.66 140.57,75.76 C129.82,81.26 129.68,81.38 131.96,82.93 C133.23,83.79 156.79,97.66 184.32,113.74 C229.75,140.28 234.56,142.87 236.44,141.69 C237.57,140.97 247.05,135.36 257.50,129.21 ZM 141.30 235.04 C135.39,231.44 132.87,224.94 134.95,218.64 C139.88,203.72 161.54,206.96 162.16,222.71 C162.59,233.59 150.57,240.70 141.30,235.04 ZM 314.97 236.18 C309.22,233.63 306.02,228.68 306.01,222.33 C305.99,212.63 318.07,205.88 327.09,210.55 C336.54,215.43 336.16,231.53 326.51,235.56 C322.92,237.06 317.60,237.35 314.97,236.18 Z" fill="rgb(252,253,253)"/>
</g>
</svg>